<svg width="14" height="18" viewBox="0 0 14 18" fill="none" xmlns="http://www.w3.org/2000/svg">
<path d="M9.80794 8.22614L12.1987 5.07891L13.8296 6.31786L11.4388 9.46661L9.80794 8.22614ZM9.3186 7.86351L11.8608 4.51499L10.1485 3.21554L7.60629 6.56405L9.3186 7.86351ZM8.27295 4.14285L7.53856 5.64854L9.70748 2.79469L8.08992 1.56563L6.71094 3.38106L8.27295 4.14285ZM7.48376 1.35597L5.70905 0.0078125L4.1109 2.11243L6.15311 3.10823L7.48376 1.35597ZM11.5553 10.3178L6.26612 6.40956L5.88865 6.44419L6.06217 6.52029L8.42744 11.7877L7.79883 11.8734L5.60403 6.98376L4.08198 6.31025L3.92977 5.13675L5.42937 5.8757L6.81292 5.74899L7.45979 4.42367L3.2399 2.36547L0.169922 6.64662L4.01653 12.4491L3.15276 17.9901H10.2341V13.4365L11.5769 11.5747L11.9845 9.75123L11.5553 10.3178Z" fill="white"/>
</svg>
