<svg width="61" height="50" viewBox="0 0 61 50" fill="none" xmlns="http://www.w3.org/2000/svg">
<path d="M7.79688 1.84961H53.6445C53.6445 5.67812 50.5408 8.7819 46.7122 8.7819H34.8096H26.6318H14.7292C10.9007 8.7819 7.79688 5.67812 7.79688 1.84961Z" fill="#C77544"/>
<path d="M34.8096 16.2701V17.6069C34.8096 19.8556 32.9694 21.6958 30.7207 21.6958C28.472 21.6958 26.6318 19.8556 26.6318 17.6069V16.2701V8.78125H34.8096V16.2701Z" fill="#FFD15E"/>
<path d="M30.7206 21.6972H7.48169V16.2715H26.6318V17.6083C26.6318 19.857 28.472 21.6972 30.7206 21.6972Z" fill="#C77544"/>
<path d="M53.9596 16.2715V21.6972H30.7207C32.9694 21.6972 34.8096 19.857 34.8096 17.6083V16.2715H53.9596Z" fill="#C77544"/>
<path d="M53.9596 26.7656H7.48169V31.8357H53.9596V26.7656Z" fill="#C77544"/>
<path d="M53.9596 36.9062H7.48169V42.3319H53.9596V36.9062Z" fill="#C77544"/>
<path d="M60.0254 16.2715V48.3983H1.41602V16.2715H7.48177V21.6972V26.7668V31.8368V36.9069V42.3326H53.9596V36.9069V31.8368V26.7668V21.6972V16.2715H60.0254Z" fill="#FFD15E"/>
<path d="M7.48177 16.2707H1.41602V16.2703V5.27164C1.41602 3.3818 2.94821 1.84961 4.83805 1.84961H7.79688C7.79688 5.67812 10.9007 8.7819 14.7292 8.7819H26.6318V16.2707H7.48177Z" fill="#F59154"/>
<path d="M53.9596 16.2707H34.8096V8.7819H46.7122C50.5407 8.7819 53.6445 5.67812 53.6445 1.84961H56.6034C58.4932 1.84961 60.0254 3.3818 60.0254 5.27164V16.2703V16.2707H53.9596Z" fill="#F59154"/>
<path d="M53.9596 21.6973V26.7669H7.48169V21.6973H30.7206H53.9596Z" fill="#F59154"/>
<path d="M53.9596 31.8359H7.48169V36.906H53.9596V31.8359Z" fill="#F59154"/>
<path d="M7.48169 43.2763C7.23079 43.2763 6.99052 43.1767 6.81327 42.9994C6.63603 42.8222 6.53638 42.5815 6.53638 42.331V16.2695C6.53638 15.7476 6.9598 15.3242 7.48169 15.3242C8.00358 15.3242 8.427 15.7476 8.427 16.2695V41.3857H53.0142V16.2695C53.0142 15.7476 53.4377 15.3242 53.9596 15.3242C54.4814 15.3242 54.9049 15.7476 54.9049 16.2695V42.331C54.9049 42.8529 54.4814 43.2763 53.9596 43.2763H7.48169Z" fill="#333333"/>
<path d="M60.0254 49.3421H1.41602C0.894124 49.3421 0.470703 48.9187 0.470703 48.3968V16.2695C0.470703 15.7476 0.894124 15.3242 1.41602 15.3242C1.93791 15.3242 2.36133 15.7476 2.36133 16.2695V47.4515H59.0801V16.2695C59.0801 15.7476 59.5035 15.3242 60.0254 15.3242C60.5473 15.3242 60.9707 15.7476 60.9707 16.2695V48.3968C60.9707 48.9191 60.5473 49.3421 60.0254 49.3421Z" fill="#333333"/>
<path d="M60.0254 17.2161H34.8096C34.2877 17.2161 33.8643 16.7926 33.8643 16.2707C33.8643 15.7489 34.2877 15.3254 34.8096 15.3254H59.0801V5.27164C59.0801 3.90606 57.9689 2.79492 56.6034 2.79492H4.83805C3.47246 2.79492 2.36133 3.90606 2.36133 5.27164V15.3254H26.6318C27.1537 15.3254 27.5771 15.7489 27.5771 16.2707C27.5771 16.7926 27.1537 17.2161 26.6318 17.2161H1.41602C0.894124 17.2161 0.470703 16.7926 0.470703 16.2707V5.27164C0.470703 2.86346 2.42986 0.904297 4.83805 0.904297H56.603C59.0112 0.904297 60.9703 2.86346 60.9703 5.27164V16.2707C60.9707 16.7926 60.5473 17.2161 60.0254 17.2161Z" fill="#333333"/>
<path d="M46.7122 9.72721H14.7292C10.3855 9.72721 6.85156 6.19332 6.85156 1.84961C6.85156 1.32772 7.27498 0.904297 7.79688 0.904297C8.31877 0.904297 8.74219 1.32772 8.74219 1.84961C8.74219 5.15072 11.4281 7.83659 14.7292 7.83659H46.7122C50.0133 7.83659 52.6992 5.15072 52.6992 1.84961C52.6992 1.32772 53.1226 0.904297 53.6445 0.904297C54.1664 0.904297 54.5898 1.32772 54.5898 1.84961C54.5898 6.19332 51.056 9.72721 46.7122 9.72721Z" fill="#333333"/>
<path d="M30.7207 22.6407C27.945 22.6407 25.6865 20.3826 25.6865 17.6065V8.78125C25.6865 8.25936 26.1099 7.83594 26.6318 7.83594H34.8096C35.3315 7.83594 35.7549 8.25936 35.7549 8.78125V17.6069C35.7549 20.3826 33.4964 22.6407 30.7207 22.6407ZM27.5771 9.72656V17.6069C27.5771 19.3404 28.9872 20.7505 30.7207 20.7505C32.4542 20.7505 33.8643 19.3404 33.8643 17.6069V9.72656H27.5771Z" fill="#333333"/>
<path d="M30.7207 18.0517C30.1988 18.0517 29.7754 17.6283 29.7754 17.1064V13.543C29.7754 13.0211 30.1988 12.5977 30.7207 12.5977C31.2426 12.5977 31.666 13.0211 31.666 13.543V17.1064C31.666 17.6283 31.2426 18.0517 30.7207 18.0517Z" fill="#333333"/>
<path d="M53.9596 37.8516H7.48169C6.9598 37.8516 6.53638 37.4281 6.53638 36.9062C6.53638 36.3844 6.9598 35.9609 7.48169 35.9609H53.9596C54.4814 35.9609 54.9049 36.3844 54.9049 36.9062C54.9049 37.4281 54.4814 37.8516 53.9596 37.8516Z" fill="#333333"/>
<path d="M53.9596 32.7812H7.48169C6.9598 32.7812 6.53638 32.3578 6.53638 31.8359C6.53638 31.314 6.9598 30.8906 7.48169 30.8906H53.9596C54.4814 30.8906 54.9049 31.314 54.9049 31.8359C54.9049 32.3578 54.4814 32.7812 53.9596 32.7812Z" fill="#333333"/>
<path d="M53.9596 27.7109H7.48169C6.9598 27.7109 6.53638 27.2875 6.53638 26.7656C6.53638 26.2437 6.9598 25.8203 7.48169 25.8203H53.9596C54.4814 25.8203 54.9049 26.2437 54.9049 26.7656C54.9049 27.2875 54.4814 27.7109 53.9596 27.7109Z" fill="#333333"/>
<path d="M53.9596 22.6406H7.48169C6.9598 22.6406 6.53638 22.2172 6.53638 21.6953C6.53638 21.1734 6.9598 20.75 7.48169 20.75H53.9596C54.4814 20.75 54.9049 21.1734 54.9049 21.6953C54.9049 22.2172 54.4814 22.6406 53.9596 22.6406Z" fill="#333333"/>
</svg>
