<svg width="53" height="40" viewBox="0 0 53 40" fill="none" xmlns="http://www.w3.org/2000/svg">
<path fill-rule="evenodd" clip-rule="evenodd" d="M15.3806 2.96898L12.2491 6.00577L9.11409 9.04256C7.43834 7.31251 7.48235 4.55007 9.21226 2.87433C10.9423 1.19492 13.7049 1.23893 15.3806 2.96898Z" fill="#FFEA7F"/>
<path fill-rule="evenodd" clip-rule="evenodd" d="M43.2347 2.87167C44.9646 4.54741 45.0086 7.30999 43.3329 9.0399L40.1981 6.00325L37.0632 2.96646C38.7424 1.2398 41.5048 1.19579 43.2347 2.87167Z" fill="#FFEA7F"/>
<path fill-rule="evenodd" clip-rule="evenodd" d="M42.4397 21.7592C42.4397 27.054 39.9006 31.7564 35.9736 34.7152C33.2584 36.7599 29.8832 37.972 26.2235 37.972C22.5638 37.972 19.1887 36.76 16.4735 34.7152C12.5465 31.7562 10.0073 27.0538 10.0073 21.7592C10.0073 12.8081 17.259 5.55312 26.2066 5.54297C26.2134 5.54297 26.2168 5.54297 26.2235 5.54297C35.178 5.54297 42.4397 12.8013 42.4397 21.7592ZM38.8784 21.7592C38.8784 14.7682 33.2112 9.10449 26.2237 9.10449C19.2362 9.10449 13.569 14.7717 13.569 21.7592C13.569 28.7467 19.2362 34.4139 26.2237 34.4139C33.2112 34.4139 38.8784 28.7467 38.8784 21.7592Z" fill="#FE6470"/>
<path d="M35.1703 30.7079C40.1122 25.766 40.1122 17.7536 35.1703 12.8116C30.2284 7.86972 22.216 7.86972 17.2741 12.8116C12.3321 17.7536 12.3321 25.766 17.2741 30.7079C22.216 35.6498 30.2284 35.6498 35.1703 30.7079Z" fill="#F0F4FF"/>
<path fill-rule="evenodd" clip-rule="evenodd" d="M26.22 35.2255C24.4021 35.2255 22.6382 34.87 20.976 34.1659C19.3713 33.4888 17.9326 32.5171 16.6934 31.2781C15.4578 30.0424 14.4862 28.6002 13.8057 26.9955C13.1016 25.3333 12.7461 23.5693 12.7461 21.7514C12.7461 19.9334 13.1016 18.1696 13.8057 16.5074C14.4828 14.9027 15.4544 13.464 16.6934 12.2248C17.929 10.9891 19.3712 10.0174 20.976 9.33696C22.6382 8.63281 24.4021 8.27734 26.22 8.27734C28.0381 8.27734 29.8019 8.63281 31.4641 9.33696C33.0687 10.014 34.5076 10.9856 35.7467 12.2248C36.9823 13.4604 37.9539 14.9026 38.6344 16.5074C39.3385 18.1696 39.694 19.9335 39.694 21.7514C39.694 23.5693 39.3385 25.3333 38.6344 26.9955C37.9573 28.6001 36.9857 30.0389 35.7467 31.2781C34.511 32.5137 33.0689 33.4853 31.4641 34.1659C29.8019 34.87 28.0381 35.2255 26.22 35.2255ZM26.22 9.91275C19.6896 9.91275 14.3778 15.2245 14.3778 21.755C14.3778 28.2854 19.6896 33.5972 26.22 33.5972C32.7505 33.5972 38.0622 28.2854 38.0622 21.755C38.0624 15.2245 32.7506 9.91275 26.22 9.91275Z" fill="#333333"/>
<path fill-rule="evenodd" clip-rule="evenodd" d="M23.1776 26.3361C22.9982 26.3361 22.8188 26.2785 22.6664 26.1566C22.3177 25.8757 22.2636 25.3645 22.5445 25.0124L25.4052 21.4678V14.4668C25.4052 14.0165 25.7674 13.6543 26.2176 13.6543C26.6679 13.6543 27.0301 14.0165 27.0301 14.4668V21.7589C27.0301 21.9451 26.9658 22.1246 26.8507 22.2701L23.8105 26.0382C23.6515 26.2345 23.4146 26.3361 23.1776 26.3361Z" fill="#333333"/>
<path fill-rule="evenodd" clip-rule="evenodd" d="M26.2029 6.35378C25.7526 6.35378 25.3904 5.99155 25.3904 5.5413V1.09959C25.3904 0.64934 25.7526 0.287109 26.2029 0.287109C26.6531 0.287109 27.0153 0.64934 27.0153 1.09959V5.5413C27.0155 5.99155 26.6499 6.35378 26.2029 6.35378Z" fill="#333333"/>
<path fill-rule="evenodd" clip-rule="evenodd" d="M23.1697 1.09959C23.1697 0.64934 23.5319 0.287109 23.9822 0.287109H28.4239C28.8741 0.287109 29.2363 0.64934 29.2363 1.09959C29.2363 1.54984 28.8741 1.91207 28.4239 1.91207H23.9822C23.5353 1.91207 23.1697 1.54984 23.1697 1.09959Z" fill="#333333"/>
<path fill-rule="evenodd" clip-rule="evenodd" d="M39.8162 39.956C39.5894 39.956 39.3626 39.8612 39.2035 39.675L35.361 35.2469C35.0664 34.9083 35.1037 34.3938 35.4422 34.0992C35.7807 33.8047 36.2953 33.842 36.5898 34.1805L40.4323 38.6085C40.7269 38.947 40.6896 39.4616 40.3511 39.7561C40.192 39.8883 40.0024 39.956 39.8162 39.956Z" fill="#333333"/>
<path fill-rule="evenodd" clip-rule="evenodd" d="M26.2201 38.782C23.9214 38.782 21.6904 38.3317 19.5915 37.4448C17.5636 36.5883 15.7423 35.3593 14.1782 33.7952C12.6141 32.2312 11.3885 30.4098 10.5286 28.3819C9.64166 26.283 9.19141 24.0519 9.19141 21.7533C9.19141 19.4547 9.64166 17.2236 10.5286 15.1247C11.3851 13.0968 12.614 11.2754 14.1782 9.71136C15.7422 8.14733 17.5636 6.92184 19.5915 6.06182C21.6905 5.17486 23.9214 4.72461 26.2201 4.72461C28.5187 4.72461 30.7498 5.17486 32.8487 6.06182C34.8765 6.91831 36.698 8.14719 38.262 9.71136C39.8261 11.2754 41.0516 13.0968 41.9116 15.1247C42.7985 17.2236 43.2488 19.4547 43.2488 21.7533C43.2488 24.0519 42.7985 26.283 41.9116 28.3819C41.0551 30.4098 39.8262 32.2312 38.262 33.7952C36.698 35.3593 34.8765 36.5848 32.8487 37.4448C30.7498 38.3317 28.5189 38.782 26.2201 38.782ZM26.2201 6.35296C17.7261 6.35296 10.8165 13.2626 10.8165 21.7567C10.8165 30.2506 17.7261 37.1603 26.2201 37.1603C34.7142 37.1603 41.6238 30.2506 41.6238 21.7567C41.6238 13.2626 34.7142 6.35296 26.2201 6.35296Z" fill="#333333"/>
<path fill-rule="evenodd" clip-rule="evenodd" d="M12.6248 39.9559C12.4352 39.9559 12.2457 39.8916 12.0933 39.7561C11.7548 39.4616 11.7176 38.9504 12.0121 38.6085L15.8546 34.1805C16.1491 33.842 16.6603 33.8047 17.0022 34.0992C17.3407 34.3938 17.378 34.905 17.0835 35.2469L13.241 39.675C13.0785 39.8611 12.855 39.9559 12.6248 39.9559Z" fill="#333333"/>
<path fill-rule="evenodd" clip-rule="evenodd" d="M36.8246 10.3021C36.6214 10.3021 36.4183 10.2276 36.2592 10.0719C35.9376 9.76043 35.9274 9.24586 36.2423 8.92425L39.6142 5.4406C39.9257 5.11899 40.4402 5.10883 40.7618 5.42367C41.0834 5.73512 41.0936 6.24969 40.7788 6.5713L37.4068 10.0548C37.2477 10.2175 37.0378 10.3021 36.8246 10.3021Z" fill="#333333"/>
<path fill-rule="evenodd" clip-rule="evenodd" d="M43.3299 9.85451C43.1268 9.85451 42.9237 9.78003 42.7646 9.62431L36.4948 3.55425C36.3391 3.4053 36.251 3.19879 36.2477 2.98213C36.2443 2.76547 36.3255 2.55896 36.4779 2.40323C38.4651 0.351718 41.7456 0.300938 43.7971 2.28475C45.8486 4.27208 45.8994 7.55248 43.9156 9.604C43.7532 9.76988 43.5432 9.85451 43.3299 9.85451ZM38.2789 3.01598L43.2453 7.82669C44.0713 6.44547 43.8716 4.62077 42.6664 3.45608C41.4612 2.28799 39.6331 2.14581 38.2789 3.01598Z" fill="#333333"/>
<path fill-rule="evenodd" clip-rule="evenodd" d="M15.6166 10.3027C15.4033 10.3027 15.1934 10.2215 15.0343 10.0556L11.6624 6.57196C11.3509 6.25035 11.3577 5.73578 11.6793 5.42433C12.0009 5.11288 12.5155 5.11965 12.8269 5.44126L16.1989 8.92491C16.5103 9.24652 16.5035 9.76109 16.1819 10.0725C16.0228 10.2249 15.8197 10.3027 15.6166 10.3027Z" fill="#333333"/>
<path fill-rule="evenodd" clip-rule="evenodd" d="M9.11002 9.85503C8.89674 9.85503 8.68685 9.77378 8.52774 9.6079C6.54055 7.55639 6.59471 4.27585 8.64623 2.28865C10.6979 0.304844 13.9783 0.355624 15.9655 2.40714C16.1144 2.56287 16.1991 2.76937 16.1957 2.98603C16.1923 3.2027 16.1043 3.40582 15.9485 3.55816L9.67537 9.62483C9.51626 9.77717 9.31314 9.85503 9.11002 9.85503ZM12.2415 2.45778C11.3511 2.45778 10.4606 2.78954 9.77341 3.45646C8.56822 4.6244 8.36849 6.44585 9.19451 7.82707L14.1609 3.01636C13.5787 2.64397 12.9118 2.45778 12.2415 2.45778Z" fill="#333333"/>
<path fill-rule="evenodd" clip-rule="evenodd" d="M45.6981 28.2143C45.5086 28.2143 45.3224 28.15 45.1666 28.0179C44.8281 27.7234 44.7909 27.2122 45.082 26.8703C46.9982 24.6494 47.2792 21.4638 45.7828 18.9449C45.5526 18.559 45.6812 18.0614 46.0671 17.8312C46.4531 17.601 46.9507 17.7296 47.1809 18.1155C48.0848 19.6389 48.4809 21.3791 48.3285 23.1531C48.1728 24.9337 47.4788 26.5859 46.3141 27.9333C46.1518 28.1195 45.925 28.2143 45.6981 28.2143Z" fill="#333333"/>
<path fill-rule="evenodd" clip-rule="evenodd" d="M48.2779 31.1155C48.0782 31.1155 47.8784 31.041 47.7193 30.892C47.3943 30.584 47.3774 30.0694 47.6855 29.7444C51.108 26.1186 51.5483 20.5021 48.7315 16.3923C48.4776 16.0233 48.5724 15.5155 48.9414 15.2616C49.3104 15.0077 49.8182 15.1025 50.0721 15.4715C51.6463 17.7702 52.3978 20.5734 52.1812 23.3663C52.0762 24.7441 51.7411 26.0813 51.1927 27.3442C50.6273 28.6442 49.8453 29.8258 48.8703 30.8583C48.7078 31.031 48.4946 31.1155 48.2779 31.1155Z" fill="#333333"/>
<path fill-rule="evenodd" clip-rule="evenodd" d="M6.74028 28.2147C6.51346 28.2147 6.28664 28.1199 6.12415 27.9337C4.95959 26.5864 4.26559 24.9342 4.10973 23.1535C3.95739 21.3794 4.35347 19.6394 5.25736 18.116C5.48756 17.73 5.98521 17.6048 6.37113 17.8316C6.75706 18.0618 6.88232 18.5595 6.6555 18.9454C5.15918 21.4675 5.44017 24.6532 7.35627 26.8707C7.65079 27.2093 7.61017 27.7239 7.27164 28.0184C7.11605 28.1504 6.92986 28.2147 6.74028 28.2147Z" fill="#333333"/>
<path fill-rule="evenodd" clip-rule="evenodd" d="M4.16057 31.1161C3.94391 31.1161 3.73063 31.0315 3.56814 30.8622C2.59316 29.8297 1.81114 28.6448 1.24579 27.3481C0.693981 26.0854 0.362218 24.7481 0.257272 23.3702C0.0406107 20.5805 0.792156 17.7774 2.36634 15.4754C2.62024 15.1064 3.12466 15.0116 3.49704 15.2655C3.86605 15.5194 3.96083 16.0238 3.70693 16.3962C0.886804 20.5096 1.32704 26.1226 4.753 29.7483C5.06107 30.0733 5.04753 30.5879 4.71915 30.8959C4.56018 31.0418 4.36045 31.1161 4.16057 31.1161Z" fill="#333333"/>
</svg>
