<svg width="14" height="17" viewBox="0 0 14 17" fill="none" xmlns="http://www.w3.org/2000/svg">
<path d="M2.86063 0.408203C1.19784 1.17369 0.100586 2.40446 0.100586 3.7849C0.100586 4.69348 0.567576 5.53483 1.36097 6.22216C0.955087 7.10596 0.700157 8.09812 0.636824 9.15257C1.23514 9.17213 1.8036 9.2989 2.31381 9.55971C3.76023 10.2992 4.43938 11.8892 4.32469 13.7735C4.58797 13.8372 4.85654 13.8903 5.12929 13.9329C5.1604 13.3497 5.15817 12.7683 5.11203 12.1887L5.76031 12.1371C5.81035 12.7646 5.81133 13.3903 5.77625 14.014C6.0554 14.0404 6.33789 14.0561 6.62261 14.0621V12.1052H7.27288V14.0584C7.54535 14.0497 7.81897 14.0322 8.0929 14.0057C8.05827 13.3848 8.05949 12.7619 8.10925 12.1371L8.75754 12.1888C8.7115 12.7663 8.70917 13.3457 8.74 13.9269C8.99427 13.8897 9.24805 13.845 9.50079 13.7932C9.38015 11.9004 10.059 10.3018 11.5103 9.55981C12.0204 9.29893 12.589 9.17209 13.1872 9.15261C13.1231 8.08375 12.8621 7.07885 12.4466 6.186C13.2149 5.50535 13.666 4.67765 13.666 3.78494C13.666 2.4045 12.5688 1.17369 10.906 0.408308C11.3603 0.984807 11.64 1.67555 11.64 2.40492C11.64 3.89037 10.5435 5.17533 8.95961 5.78541L8.74595 5.28779C9.13388 5.13329 9.48482 4.93296 9.78558 4.69748C10.137 4.4224 10.419 4.10289 10.6176 3.75257C9.57888 2.87104 8.29859 2.3508 6.91203 2.3508C5.50827 2.3508 4.2133 2.8837 3.16776 3.78528C3.3652 4.12283 3.64059 4.43096 3.98106 4.69748C4.31755 4.9609 4.71686 5.18037 5.1605 5.3409L4.94736 5.83726C3.2883 5.25046 2.12663 3.93394 2.12663 2.40492C2.12663 1.67555 2.40634 0.984807 2.86063 0.408308V0.408203ZM3.21856 6.7807C3.22044 6.78056 3.22204 6.78084 3.22298 6.78199C3.86375 7.59452 5.03004 8.16337 6.3926 8.28394C6.18757 8.96939 5.4534 9.48552 4.55978 9.48552C3.50853 9.48552 2.64074 8.76924 2.64074 7.90162C2.64081 7.46786 2.85666 7.06657 3.20134 6.78206C3.20422 6.78533 3.21282 6.78112 3.21853 6.78067L3.21856 6.7807ZM10.5842 6.78077C10.586 6.78067 10.5877 6.78098 10.589 6.78216C10.9337 7.06664 11.1497 7.46793 11.1497 7.90172C11.1497 8.76924 10.2819 9.48555 9.23055 9.48555C8.33694 9.48555 7.60284 8.9695 7.39774 8.28398C8.76029 8.16337 9.92662 7.59452 10.5674 6.78209C10.5713 6.78505 10.5786 6.78105 10.5842 6.78077ZM6.91022 8.31724C7.10596 9.27141 7.39488 10.2256 8.05542 11.1797C7.34993 11.3688 6.49584 11.3755 5.76501 11.1797C6.39026 10.2256 6.69878 9.27141 6.91022 8.31724ZM4.25478 14.4257C4.17335 14.9616 4.03162 15.5149 3.8285 16.0741C4.13424 16.2739 4.45615 16.4446 4.79112 16.5835C4.91733 15.9145 5.01859 15.2481 5.08099 14.5842C4.80191 14.5417 4.52617 14.4891 4.25474 14.4257L4.25478 14.4257ZM9.57199 14.4424C9.3117 14.4947 9.05019 14.5401 8.78813 14.5777C8.84997 15.2379 8.95011 15.9005 9.07514 16.5657C9.39501 16.4301 9.70273 16.2654 9.99562 16.0741C9.79463 15.5206 9.65376 14.973 9.57199 14.4424V14.4424ZM8.142 14.6552C7.85196 14.683 7.56198 14.7012 7.27292 14.7102V16.9962C7.67811 16.9696 8.07348 16.8985 8.45511 16.7871C8.31947 16.0792 8.20951 15.3685 8.142 14.6552ZM5.72694 14.6634C5.65898 15.3782 5.54843 16.0902 5.41227 16.7995C5.80294 16.9102 6.20775 16.9786 6.62265 17.0004V14.7137C6.32192 14.7077 6.02294 14.6913 5.72694 14.6634Z" fill="white"/>
</svg>
