<svg width="51" height="40" viewBox="0 0 51 40" fill="none" xmlns="http://www.w3.org/2000/svg">
<path d="M35.1291 11.9824L25.2206 39.1314L15.3121 11.9824H35.1291Z" fill="#B90525"/>
<path d="M49.4394 11.9824L25.2207 39.1314L35.1292 11.9824H49.4394Z" fill="#EC3858"/>
<path d="M15.3121 11.9824L25.2206 39.1314L1.00195 11.9824H15.3121Z" fill="#EC3858"/>
<path d="M25.2205 1.11328L15.312 11.9824L7.92078 1.11328H25.2205Z" fill="#EC3858"/>
<path d="M42.5205 1.11328L35.1292 11.9824L25.2207 1.11328H42.5205Z" fill="#EC3858"/>
<path d="M42.5204 1.11328L49.4393 11.9824H35.1292L42.5204 1.11328Z" fill="#FB768E"/>
<path d="M25.2206 1.11328L35.1291 11.9824H15.3121L25.2206 1.11328Z" fill="#FB768E"/>
<path d="M7.92088 1.11328L15.3121 11.9824H1.00195L7.92088 1.11328Z" fill="#FB768E"/>
<path d="M25.2206 39.9128C24.998 39.9128 24.7857 39.8178 24.6376 39.6517L0.418952 12.5031C0.131843 12.1811 0.159838 11.6873 0.481777 11.3999C0.803716 11.1128 1.29753 11.1408 1.58496 11.4627L25.2206 37.9577L48.8563 11.4624C49.1434 11.1404 49.6372 11.1121 49.9595 11.3996C50.2814 11.6867 50.3098 12.1808 50.0223 12.5027L25.8036 39.6514C25.6555 39.8178 25.4433 39.9128 25.2206 39.9128Z" fill="#333333"/>
<path d="M25.2206 39.9128C24.8924 39.9128 24.5991 39.7077 24.4865 39.3995L14.6115 12.3416L7.27465 1.55288C7.03214 1.19611 7.12458 0.710113 7.48135 0.467601C7.83812 0.225089 8.32412 0.317535 8.56664 0.674305L15.9579 11.5434C15.994 11.5968 16.0236 11.6544 16.0458 11.715L25.2206 36.8526L34.395 11.7146C34.4171 11.6541 34.4468 11.5965 34.4829 11.5431L41.8742 0.67398C42.1167 0.317211 42.6027 0.224763 42.9594 0.467275C43.3162 0.709787 43.4087 1.19579 43.1661 1.55256L35.8296 12.3413L25.9543 39.3988C25.842 39.7074 25.5487 39.9128 25.2206 39.9128Z" fill="#333333"/>
<path d="M49.4393 12.7637H1.00195C0.570637 12.7637 0.220703 12.4137 0.220703 11.9824C0.220703 11.5511 0.570637 11.2012 1.00195 11.2012H49.4393C49.8706 11.2012 50.2206 11.5511 50.2206 11.9824C50.2206 12.4137 49.8706 12.7637 49.4393 12.7637Z" fill="#333333"/>
<path d="M49.4394 12.7636H1.00203C0.716877 12.7636 0.454508 12.6084 0.317138 12.3584C0.180094 12.1084 0.18986 11.8034 0.342855 11.5628L7.26178 0.693683C7.40533 0.468424 7.65371 0.332031 7.92096 0.332031H42.5205C42.7874 0.332031 43.0361 0.468424 43.1796 0.693683L50.0986 11.5628C50.2516 11.8034 50.2617 12.1084 50.1243 12.3584C49.9869 12.6084 49.7245 12.7636 49.4394 12.7636ZM2.42553 11.2011H48.0159L42.0918 1.89453H8.34967L2.42553 11.2011Z" fill="#333333"/>
<path d="M35.129 12.7636H15.312C15.0024 12.7636 14.7221 12.581 14.5971 12.2978C14.4721 12.0146 14.5259 11.6845 14.7345 11.456L24.643 0.586913C24.7911 0.424478 25.0008 0.332031 25.2205 0.332031C25.4402 0.332031 25.6498 0.424478 25.798 0.586913L35.7065 11.456C35.9148 11.6845 35.9688 12.0149 35.8438 12.2978C35.7188 12.5807 35.4386 12.7636 35.129 12.7636ZM17.0815 11.2011H33.3598L25.2205 2.27311L17.0815 11.2011Z" fill="#333333"/>
</svg>
