<svg width="14" height="14" viewBox="0 0 14 14" fill="none" xmlns="http://www.w3.org/2000/svg">
<path fill-rule="evenodd" clip-rule="evenodd" d="M1.74403 2.87805e-05L2.02173 2.03443L0 1.71266L1.20888 3.32727L0.884817 12.6203C0.543716 13.0014 0.281484 13.451 0.132747 14C2.29369 12.3922 4.58523 11.9381 6.64505 11.0805L5.59912 10.0464C4.05199 10.7729 2.51856 11.2699 1.44758 12.1009L1.72933 4.02238L1.96407 4.33591L2.02814 4.46463H4.1048L9.92418 11.0054C10.379 10.613 10.7864 10.1873 11.1666 9.71984L4.47167 4.13969V2.08425L4.12626 1.82033L12.0944 1.51336C11.221 2.56039 10.7302 4.07824 10.0153 5.61441L11.08 6.6672C11.931 4.64455 12.391 2.40276 14 0.288625C13.46 0.431743 13.0188 0.663409 12.6427 0.968304L12.6421 0.953733L3.45533 1.30764L1.744 0L1.74403 2.87805e-05ZM2.46086 1.22784L3.9274 2.34848V3.92637H2.36688L2.3492 3.92217L1.23209 2.4539L2.65917 2.68111L2.46083 1.22787L2.46086 1.22784ZM9.68662 6.05064C9.44891 6.43291 9.19023 6.7946 8.91233 7.13704L9.80722 7.88295C10.1322 7.63098 10.4645 7.38835 10.7992 7.1506L9.68665 6.05059L9.68662 6.05064ZM12.5992 8.63482C11.5581 10.2709 10.4036 11.5353 8.67642 12.5501C10.3989 13.1457 12.1273 13.6242 13.8838 13.8165C13.6302 12.0698 13.1855 10.3448 12.5992 8.63494V8.63482ZM7.23805 8.80109C6.8472 9.11727 6.4348 9.41117 6.00278 9.68439L7.09406 10.7634C7.34883 10.3438 7.63634 9.95841 7.94818 9.59915L7.23805 8.80109Z" fill="white"/>
</svg>
