<svg width="51" height="51" viewBox="0 0 51 51" fill="none" xmlns="http://www.w3.org/2000/svg">
<path d="M49.4631 0.880859V9.21514L44.6131 11.575L41.906 17.1394L36.3416 19.8468L28.406 28.0845L28.7835 28.8332C29.6096 30.659 30.0692 32.6858 30.0692 34.8203C30.0692 42.8537 23.5572 49.3657 15.5237 49.3657C7.49027 49.3657 0.978271 42.8537 0.978271 34.8203C0.978271 26.7868 7.49027 20.2748 15.5237 20.2748C17.6582 20.2748 19.685 20.7344 21.5108 21.5605L42.1904 0.880859H49.4631ZM21.9884 34.8203C21.9884 31.2499 19.0941 28.3556 15.5237 28.3556C11.9533 28.3556 9.05908 31.2499 9.05908 34.8203C9.05908 38.3906 11.9533 41.2849 15.5237 41.2849C19.0941 41.2849 21.9884 38.3906 21.9884 34.8203Z" fill="#FFD15E"/>
<path d="M15.5237 42.0421C13.5946 42.0421 11.7809 41.2909 10.4168 39.9268C9.05274 38.5627 8.30151 36.749 8.30151 34.8199C8.30151 32.8907 9.05274 31.077 10.4168 29.713C11.7809 28.3489 13.5946 27.5977 15.5237 27.5977C17.4529 27.5977 19.2666 28.3489 20.6306 29.713C21.9947 31.077 22.746 32.8907 22.746 34.8199C22.746 36.749 21.9947 38.5627 20.6306 39.9268C19.2666 41.2909 17.4529 42.0421 15.5237 42.0421ZM15.5237 29.1128C12.3769 29.1128 9.81667 31.673 9.81667 34.8199C9.81667 37.9668 12.3768 40.5269 15.5237 40.5269C18.6706 40.5269 21.2308 37.9668 21.2308 34.8199C21.2308 31.673 18.6706 29.1128 15.5237 29.1128Z" fill="#333333"/>
<path d="M15.5237 50.123C13.4581 50.123 11.4539 49.7183 9.56679 48.9202C7.74441 48.1494 6.10792 47.0462 4.70277 45.641C3.29763 44.2358 2.19435 42.5994 1.42358 40.777C0.625406 38.8898 0.220703 36.8856 0.220703 34.82C0.220703 32.7544 0.625406 30.7502 1.42358 28.8631C2.19435 27.0407 3.29763 25.4042 4.70277 23.9991C6.10792 22.5939 7.74441 21.4906 9.56679 20.7199C11.4539 19.9217 13.4581 19.517 15.5237 19.517C17.5417 19.517 19.4954 19.9016 21.3389 20.6608L41.6547 0.344922C41.7968 0.202845 41.9894 0.123047 42.1904 0.123047H49.4631C49.8815 0.123047 50.2207 0.46222 50.2207 0.880623V9.2149C50.2207 9.5048 50.0553 9.76926 49.7946 9.89612L45.1798 12.1415L42.5872 17.4706C42.513 17.623 42.3899 17.7462 42.2374 17.8204L36.7939 20.469L29.3243 28.2229L29.46 28.4919C29.4648 28.5014 29.4694 28.511 29.4738 28.5207C30.3716 30.505 30.8268 32.6244 30.8268 34.82C30.8268 36.8856 30.4221 38.8898 29.6239 40.777C28.8532 42.5993 27.7499 44.2358 26.3447 45.641C24.9395 47.0462 23.3031 48.1494 21.4807 48.9202C19.5936 49.7183 17.5893 50.123 15.5237 50.123ZM15.5237 21.0321C7.92105 21.0321 1.73585 27.2174 1.73585 34.82C1.73585 42.4227 7.92105 48.6079 15.5237 48.6079C23.1264 48.6079 29.3116 42.4227 29.3116 34.82C29.3116 32.8465 28.9039 30.9421 28.0998 29.1596L27.7296 28.4253C27.5847 28.1379 27.6371 27.7904 27.8604 27.5586L35.796 19.3209C35.8577 19.2569 35.9302 19.2042 36.0102 19.1653L41.3392 16.5724L43.9318 11.2433C44.006 11.0908 44.1292 10.9677 44.2816 10.8935L48.7056 8.74101V1.6382H42.5042L22.0465 22.0959C21.8235 22.3188 21.4858 22.3804 21.1985 22.2505C19.4118 21.442 17.5025 21.0321 15.5237 21.0321Z" fill="#333333"/>
<path d="M26.0288 22.6474C25.8349 22.6474 25.6411 22.5735 25.4931 22.4256C25.1973 22.1297 25.1973 21.65 25.4931 21.3542L41.6547 5.19258C41.9506 4.89674 42.4302 4.89674 42.7261 5.19258C43.0219 5.48844 43.0219 5.96811 42.7261 6.26395L26.5645 22.4256C26.4166 22.5735 26.2227 22.6474 26.0288 22.6474Z" fill="#333333"/>
<path d="M15.5237 46.0827C15.1053 46.0827 14.7661 45.7435 14.7661 45.3251C14.7661 44.9067 15.1053 44.5676 15.5237 44.5676C20.8985 44.5676 25.2712 40.1949 25.2712 34.8201C25.2712 34.4017 25.6103 34.0625 26.0287 34.0625C26.4471 34.0625 26.7863 34.4017 26.7863 34.8201C26.7863 36.3402 26.4884 37.8152 25.9009 39.2042C25.3336 40.5455 24.5217 41.7499 23.4875 42.784C22.4535 43.8181 21.2491 44.63 19.9078 45.1973C18.5188 45.7848 17.0438 46.0827 15.5237 46.0827Z" fill="#333333"/>
</svg>
