<svg width="26" height="24" viewBox="0 0 26 24" fill="none" xmlns="http://www.w3.org/2000/svg">
<path d="M12.4779 0.587891C9.19861 0.939214 6.22511 4.112 6.22511 8.22034C6.22511 10.4843 7.17539 12.4867 8.56818 13.871L10.2299 15.5221L7.6732 15.9184C5.86274 16.1991 4.53536 16.988 3.40067 18.2725C2.26598 19.557 0.790527 23.4092 0.790527 23.4092L25.9186 23.2688C25.9186 23.2688 24.5351 19.4057 23.3868 18.1357C22.2381 16.8659 20.8494 16.0816 18.8167 15.8219L16.2074 15.4885L17.8545 13.7864C19.1871 12.4092 20.0905 10.4298 20.0905 8.22057C20.0905 3.84055 16.7707 0.598656 13.1576 0.598656L12.4779 0.587891Z" fill="white"/>
</svg>
